<?xml version="1.0" encoding="UTF-8"?>
<svg width="24" height="24" clip-rule="evenodd" fill-rule="evenodd" stroke-linejoin="round" stroke-miterlimit="2" version="1.1" viewBox="0 0 24 24" xmlns="http://www.w3.org/2000/svg">
 <path d="m0.0058594-0.017578v24h24.025v-24h-24.025zm8.5918 3.7734h0.96875v0.96875h0.96875v0.96875h0.96484v0.96875h0.96484v-0.96875h0.96875v-0.96875h0.96875v-0.96875h0.96875v0.96875h-0.96875v0.96875h-0.96875v0.96875h-0.96484v0.96875h9.1113v14.541h-18.803v-14.541h8.7227v-0.96875h-0.96875v-0.96875h-0.96484v-0.96875h-0.96875v-0.96875zm-4.8164 4.8691v12.562h16.75v-12.562h-16.75zm2 1.8848h6.2695v1.3027h-2.2754v7.8125h-1.3301v-7.8125h-2.6641v-1.3027zm6.2812 0h1.332v5.8594h0.66602v0.65234h0.66602v0.65039h1.332v-0.65039h0.66602v-0.65234h0.66406v-5.8594h1.332v6.5117h-0.66602v0.65039h-0.66602v0.65039h-0.66406v0.65234h-0.66602v0.65039h-1.332v-0.65039h-0.66602v-0.65234h-0.66602v-0.65039h-0.66602v-0.65039h-0.66602v-6.5117z" fill="#fff" stroke-width=".72414"/>
</svg>
