<?xml version="1.0" encoding="UTF-8"?>
<svg width="34" height="24" clip-rule="evenodd" fill-rule="evenodd" stroke-linejoin="round" stroke-miterlimit="2" version="1.1" viewBox="0 0 34 24" xmlns="http://www.w3.org/2000/svg">
 <path d="m0 0v24h34v-24h-34zm2 2h30v20h-30v-20zm2 2v16h26v-16h-26zm4.5254 2.0762h8.4629v1.6914h-3.3848v10.156h-1.6934v-10.156h-3.3848v-1.6914zm8.4863 0h1.6914v7.6172h0.84766v0.8457h0.8457v0.8457h1.6934v-0.8457h0.8457v-0.8457h0.8457v-7.6172h1.6934v8.4629h-0.8457v0.8457h-0.84766v0.84766h-0.8457v0.8457h-0.8457v0.8457h-1.6934v-0.8457h-0.8457v-0.8457h-0.84766v-0.84766h-0.8457v-0.8457h-0.8457v-8.4629z" fill="#fff" stroke-width=".86147"/>
</svg>
